<svg xmlns="http://www.w3.org/2000/svg" version="1.1" xmlns:xlink="http://www.w3.org/1999/xlink" xmlns:svgjs="http://svgjs.dev/svgjs" width="1920" height="1080" preserveAspectRatio="none" viewBox="0 0 1920 1080"><g mask="url(&quot;#SvgjsMask1039&quot;)" fill="none"><rect width="1920" height="1080" x="0" y="0" fill="rgba(160, 218, 149, 1)"></rect><path d="M0,629.732C114.851,605.913,162.444,469.321,257.073,400.014C343.558,336.672,473.857,333.429,529.59,241.856C586.419,148.482,563.51,29.41,548.53,-78.867C533.482,-187.637,520.38,-305.95,443.022,-383.88C366.977,-460.487,250.397,-475.657,143.086,-487.307C49.338,-497.485,-38.934,-466.523,-131.017,-446.202C-230.645,-424.216,-339.896,-427.434,-419.182,-363.224C-504.433,-294.183,-576.086,-192.929,-579.161,-83.271C-582.18,24.419,-475.017,98.63,-434.935,198.628C-392.009,305.722,-418.08,441.816,-336.136,523.038C-250.92,607.503,-117.484,654.097,0,629.732" fill="#7bcc6c"></path><path d="M1920 1740.371C2043.485 1735.704 2145.9809999999998 1658.911 2256.436 1603.504 2381.073 1540.984 2522.93 1504.326 2609.1040000000003 1394.703 2706.33 1271.022 2769.617 1115.949 2763.2709999999997 958.756 2756.632 794.287 2698.967 620.299 2573.54 513.705 2452.108 410.506 2275.221 427.56500000000005 2116.896 409.43399999999997 1984.474 394.269 1857.582 401.086 1725.194 416.553 1565.38 435.225 1355.733 378.98199999999997 1261.466 509.37699999999995 1164.767 643.136 1319.9479999999999 827.468 1309.0700000000002 992.1610000000001 1299.446 1137.875 1147.38 1272.461 1202.123 1407.843 1256.558 1542.463 1435.054 1568.536 1566.814 1629.568 1681.087 1682.5 1794.153 1745.127 1920 1740.371" fill="#c5e8be"></path></g><defs><mask id="SvgjsMask1039"><rect width="1920" height="1080" fill="#ffffff"></rect></mask></defs></svg>