<svg xmlns="http://www.w3.org/2000/svg" xmlns:xlink="http://www.w3.org/1999/xlink" id="visual" version="1.1" viewBox="0 0 1920 582.3"><path d="M0 402L64 447C128 492 256 582 384 582.3C512 582.7 640 493.3 768 466C896 438.7 1024 473.3 1152 499.8C1280 526.3 1408 544.7 1536 529.8C1664 515 1792 467 1856 443L1920 419L1920 0L1856 0C1792 0 1664 0 1536 0C1408 0 1280 0 1152 0C1024 0 896 0 768 0C640 0 512 0 384 0C256 0 128 0 64 0L0 0Z" fill="#a0da95" stroke-linecap="round" stroke-linejoin="miter"></path></svg>